<svg xmlns="http://www.w3.org/2000/svg" viewBox="0 0 160 160">
<rect x="0" y="0" width="160" height="160" fill="black" />
<path fill="white" d="m 5,25.98016 v 7.562777 100.476903 h 7.562777 125.971733 6.68916 0.31863 1.89492 H 155 l -39.84806,-53.068167 -4.62124,6.442288 29.33319,39.063089 H 138.53451 12.562777 V 33.542937 H 70.093902 L 100.22683,73.673766 104.84596,67.22937 73.873181,25.98016 H 72.841317 66.97299 Z m 47.330661,22.975312 c -15.711978,0.08075 -25.433686,10.847478 -25.988606,30.023212 -0.596307,20.605904 9.243973,32.036986 26.155308,31.979326 14.256784,-0.0487 22.744332,-7.69755 25.475839,-21.211233 l -8.00591,0.0064 C 67.352343,99.114826 61.496514,103.94055 52.402406,103.79826 40.67758,103.61481 34.252953,95.421104 33.691707,79.07364 34.583063,64.781297 42.41067,55.691014 52.564888,56.174295 63.355117,56.687844 69.725034,63.23534 70.779701,75.524368 l -31.432792,-0.03165 0.0064,6.824224 h 39.37115 C 78.634318,79.890504 78.845073,77.596001 78.545097,75.433634 76.223952,58.702022 67.243511,48.878828 52.330661,48.955472 Z m 69.683479,1.989871 -9.51677,13.251741 -0.19414,0.270099 -14.530489,20.2701 -0.01687,-0.01266 -17.429838,24.273047 h 9.196038 l 18.200039,-25.345004 0.008,0.01056 4.61912,-6.442288 -0.005,-0.0064 5.16143,-7.18717 13.70331,-19.082085 z" />
</svg>
