<?xml version="1.0" encoding="UTF-8" standalone="no"?>
<svg
   width="160"
   height="160"
   viewBox="0 0 160 160"
   fill="none"
   version="1.1"
   id="svg1"
   sodipodi:docname="la1a1agcxt7ppntea-logo-marks.svg"
   inkscape:version="1.4.4 (dcaf3e7d9e, 2026-05-05)"
   xmlns:inkscape="http://www.inkscape.org/namespaces/inkscape"
   xmlns:sodipodi="http://sodipodi.sourceforge.net/DTD/sodipodi-0.dtd"
   xmlns="http://www.w3.org/2000/svg"
   xmlns:svg="http://www.w3.org/2000/svg">
  <defs
     id="defs1" />
  <sodipodi:namedview
     id="namedview1"
     pagecolor="#505050"
     bordercolor="#ffffff"
     borderopacity="1"
     inkscape:showpageshadow="0"
     inkscape:pageopacity="0"
     inkscape:pagecheckerboard="1"
     inkscape:deskcolor="#505050"
     inkscape:zoom="2.517094"
     inkscape:cx="152.15959"
     inkscape:cy="83.826826"
     inkscape:window-width="1920"
     inkscape:window-height="1000"
     inkscape:window-x="0"
     inkscape:window-y="0"
     inkscape:window-maximized="1"
     inkscape:current-layer="svg1" />
  <rect
     x="0"
     y="0"
     width="160"
     height="160"
     fill="#001E2B"
     id="rect1" />
  <path
     fill="#00ed64"
     d="M 93.775843,17.833104 C 87.119655,9.865789 81.387258,1.7740564 80.216361,0.09341622 c -0.123532,-0.12455496 -0.30746,-0.12455496 -0.431005,0 C 78.614444,1.7740564 72.882047,9.865789 66.225859,17.833104 9.0929669,91.34342 75.223856,140.95236 75.223856,140.95236 l 0.555993,0.37354 C 76.272635,148.98202 77.505327,160 77.505327,160 h 2.465355 2.465369 c 0,0 1.232678,-10.9562 1.725463,-18.6741 l 0.554566,-0.43532 c 0.06169,0.0618 66.19267,-49.54716 9.059763,-123.057476 z M 79.970682,139.89495 c 0,0 -2.958141,-2.553 -3.759813,-3.85894 v -0.12498 l 3.574487,-80.046531 c 0,-0.248978 0.369225,-0.248978 0.369225,0 l 3.574487,80.046531 v 0.12498 c -0.800231,1.30594 -3.758386,3.85894 -3.758386,3.85894 z"
     id="path1" />
</svg>
